<svg width="16" height="16" viewBox="0 0 16 16" fill="none" xmlns="http://www.w3.org/2000/svg">
  <rect width="16" height="16" fill="black" />
  <path d="M7.428 7.428C7.796 7.636 8.196 7.884 8.628 8.172C9.068 8.452 9.512 8.744 9.96 9.048C10.408 9.352 10.828 9.648 11.22 9.936C11.62 10.224 11.956 10.48 12.228 10.704L11.088 12.06C10.824 11.82 10.496 11.544 10.104 11.232C9.72 10.912 9.304 10.588 8.856 10.26C8.408 9.924 7.964 9.604 7.524 9.3C7.092 8.996 6.704 8.736 6.36 8.52L7.428 7.428ZM13.068 5.388C12.996 5.5 12.924 5.632 12.852 5.784C12.78 5.936 12.72 6.088 12.672 6.24C12.552 6.608 12.388 7.02 12.18 7.476C11.98 7.924 11.74 8.384 11.46 8.856C11.18 9.32 10.86 9.776 10.5 10.224C9.932 10.928 9.248 11.596 8.448 12.228C7.656 12.86 6.684 13.396 5.532 13.836L4.14 12.624C4.98 12.368 5.708 12.064 6.324 11.712C6.94 11.36 7.472 10.984 7.92 10.584C8.376 10.184 8.772 9.784 9.108 9.384C9.38 9.072 9.636 8.724 9.876 8.34C10.124 7.948 10.336 7.56 10.512 7.176C10.696 6.784 10.824 6.436 10.896 6.132H6.84L7.392 4.764H10.8C10.992 4.764 11.18 4.752 11.364 4.728C11.556 4.704 11.716 4.672 11.844 4.632L13.068 5.388ZM9.108 3.54C8.964 3.748 8.82 3.972 8.676 4.212C8.54 4.452 8.436 4.636 8.364 4.764C8.092 5.244 7.748 5.756 7.332 6.3C6.916 6.836 6.448 7.36 5.928 7.872C5.416 8.384 4.872 8.84 4.296 9.24L3 8.244C3.704 7.804 4.3 7.344 4.788 6.864C5.284 6.376 5.696 5.908 6.024 5.46C6.352 5.004 6.616 4.6 6.816 4.248C6.912 4.104 7.012 3.912 7.116 3.672C7.228 3.424 7.312 3.2 7.368 3L9.108 3.54Z" fill="white" />
</svg>
